<svg id="Layer_1" data-name="Layer 1" xmlns="http://www.w3.org/2000/svg" xmlns:xlink="http://www.w3.org/1999/xlink" viewBox="0 0 500 500"><defs><style>.cls-1{fill:url(#linear-gradient);}.cls-2{fill:url(#linear-gradient-2);}.cls-3{fill:url(#linear-gradient-3);}.cls-4{fill:url(#linear-gradient-4);}.cls-5{fill:url(#linear-gradient-5);}.cls-6{fill:url(#linear-gradient-6);}.cls-7{fill:url(#linear-gradient-7);}.cls-8{fill:url(#linear-gradient-8);}.cls-9{fill:url(#linear-gradient-9);}.cls-10{fill:url(#linear-gradient-10);}.cls-11{fill:url(#linear-gradient-11);}.cls-12{fill:url(#linear-gradient-12);}.cls-13{fill:url(#linear-gradient-13);}.cls-14{fill:url(#linear-gradient-14);}.cls-15{fill:url(#linear-gradient-15);}.cls-16{fill:url(#linear-gradient-16);}</style><linearGradient id="linear-gradient" x1="319.32" y1="306.79" x2="132.11" y2="324.72" gradientUnits="userSpaceOnUse"><stop offset="0" stop-color="#f20fc6"/><stop offset="1" stop-color="#a019db"/></linearGradient><linearGradient id="linear-gradient-2" x1="290.19" y1="304.59" x2="308.12" y2="339.92" gradientUnits="userSpaceOnUse"><stop offset="0" stop-opacity="0.5"/><stop offset="1" stop-color="#fff" stop-opacity="0"/></linearGradient><linearGradient id="linear-gradient-3" x1="242.35" y1="296.4" x2="379.98" y2="250.52" gradientUnits="userSpaceOnUse"><stop offset="0" stop-color="#f20fc6"/><stop offset="1" stop-color="#eb0e1c"/></linearGradient><linearGradient id="linear-gradient-4" x1="211.64" y1="388.99" x2="198.99" y2="496.04" gradientUnits="userSpaceOnUse"><stop offset="0" stop-opacity="0.2"/><stop offset="1" stop-color="#fff" stop-opacity="0"/></linearGradient><linearGradient id="linear-gradient-5" x1="88.15" y1="323.82" x2="206.27" y2="126.07" gradientUnits="userSpaceOnUse"><stop offset="0" stop-color="#a019db"/><stop offset="1" stop-color="#510ff2"/></linearGradient><linearGradient id="linear-gradient-6" x1="170.35" y1="241.98" x2="-29.51" y2="202.95" xlink:href="#linear-gradient-2"/><linearGradient id="linear-gradient-7" x1="134.88" y1="105.56" x2="273.56" y2="124.54" gradientUnits="userSpaceOnUse"><stop offset="0" stop-color="#510ff2"/><stop offset="1" stop-color="#0e26e8"/></linearGradient><linearGradient id="linear-gradient-8" x1="355.35" y1="214.29" x2="360.62" y2="243.82" xlink:href="#linear-gradient-2"/><linearGradient id="linear-gradient-9" x1="298.31" y1="192.23" x2="422.23" y2="189.06" gradientUnits="userSpaceOnUse"><stop offset="0" stop-color="#eb0e1c"/><stop offset="1" stop-color="#f86802"/></linearGradient><linearGradient id="linear-gradient-10" x1="353.52" y1="204.99" x2="433.25" y2="135.13" gradientUnits="userSpaceOnUse"><stop offset="0.33" stop-color="#f86802"/><stop offset="0.88" stop-color="#fcc40a"/></linearGradient><linearGradient id="linear-gradient-11" x1="149.5" y1="115.49" x2="146.87" y2="194.58" xlink:href="#linear-gradient-2"/><linearGradient id="linear-gradient-12" x1="319.32" y1="306.79" x2="132.11" y2="324.72" xlink:href="#linear-gradient-2"/><linearGradient id="linear-gradient-13" x1="213.48" y1="244.01" x2="293.63" y2="300.43" xlink:href="#linear-gradient-2"/><linearGradient id="linear-gradient-14" x1="390.39" y1="312.96" x2="339.24" y2="258.65" xlink:href="#linear-gradient-2"/><linearGradient id="linear-gradient-15" x1="331.63" y1="181.02" x2="278.47" y2="106.61" gradientUnits="userSpaceOnUse"><stop offset="0" stop-color="#f86802" stop-opacity="0"/><stop offset="1"/></linearGradient><linearGradient id="linear-gradient-16" x1="267.25" y1="121.05" x2="198.69" y2="87.83" gradientUnits="userSpaceOnUse"><stop offset="0" stop-opacity="0.3"/><stop offset="1" stop-color="#fff" stop-opacity="0"/></linearGradient></defs><path class="cls-1" d="M328,373.22v0a29.61,29.61,0,0,1-1,3.55c-2.83,7.85-9.06,14.22-18.29,19.77-.73.44-1.46.87-2.2,1.29l-2.22,1.27-2.14,1.18-.24.13c-.7.38-1.41.75-2.12,1.12l-1.85,1q-5.21,2.63-10.6,4.91L286,408l-1.31.53-2.64,1-1.33.51c-.89.33-1.78.66-2.67,1l-1.35.47c-.9.31-1.8.62-2.7.91-1.36.45-2.72.88-4.09,1.29q-5.49,1.64-11.13,2.92l-.42.1-2.41.52-.09,0c-1.39.29-2.78.56-4.18.81s-2.86.51-4.31.73l-1.33.2-.34.06-2.57.35-.14,0-1.42.18-1,.12-1.09.12-.91.1-1.36.13-1.47.13c-.49.05-1,.08-1.48.12-1.38.11-2.78.2-4.18.28l-1.13.05-1.51.07-1,0c-.64,0-1.29,0-1.94.06h-.94l-1.21,0h-1.51a170,170,0,0,1-71-15.42h0C122,359,102.91,265.74,119.44,220.5a105.15,105.15,0,0,0-4,23.61q-.17,2.92-.16,5.89a105.63,105.63,0,0,0,141.15,99.45l.28-.09c-.07-.25-.14-.48-.22-.73,0-.06,0-.12-.05-.19h0c0-.37,0-.74,0-1.1,0-.18,0-.34,0-.51h0s0-.1,0-.14l0-.83,0-.56c0-.36,0-.72.07-1.08l.09-1.12.06-.61c0-.33.06-.65.1-1s.09-.75.13-1.11c.08-.55.15-1.09.24-1.63l.18-1.06s0-.06,0-.09c.07-.4.14-.8.22-1.19s.17-.8.26-1.2.16-.72.25-1.07.24-.93.37-1.39.19-.68.29-1,.22-.71.34-1.06.28-.82.42-1.23l.36-.94s0,0,0,0c.13-.34.26-.67.4-1,0,0,0,0,0,0l.44-1c.13-.28.26-.55.38-.83.06-.1.1-.2.15-.3l.39-.75,0-.11c.15-.29.31-.58.47-.86l.06-.1c.16-.29.32-.56.49-.84l.5-.82.08-.13.54-.8,0-.07.54-.77h0c.2-.28.41-.55.61-.81s.42-.53.64-.79l.53-.64.18-.2c.2-.22.39-.44.59-.65l.05-.05c.2-.22.41-.44.62-.65a.47.47,0,0,1,.1-.1l.64-.64.78-.71.64-.55.21-.18.68-.55.79-.61c.48-.36,1-.71,1.48-1l.21-.14c.26-.18.53-.34.8-.51l0,0,.85-.51,0,0,.12-.07h0l.73-.41.91-.48.79-.39,1.22-.56.83-.36,1-.39h0c.32-.12.65-.25,1-.36l.92-.32.19-.06c.31-.1.63-.21.95-.3h0l1-.3,1.08-.29.81-.2,1.21-.28.51-.11.4-.08.67-.13,1.19-.21,1.13-.17h.06c.46-.07.91-.13,1.38-.18l.11,0,1.43-.16,1.5-.14,1.32-.09.69,0,.9-.05h.49l.79,0,.74,0h1.42q4.34,0,9,.42h0c1.09.09,2.2.21,3.32.34H315q6.46.76,13.45,2.25l-13.32-1.86-2.77-.39a2.58,2.58,0,0,0-.88-.35.8.8,0,0,0-.27,0,.35.35,0,0,0-.21.15l1.36.19.38,1.27,13.89,46.71C328.86,360.83,329.28,367.42,328,373.22Z"/><path class="cls-2" d="M346.72,305.49l-12.83-1.63-2.64-.34h0l-17.56-2.24.41,1.27.88,2.7h0l.13.39-2.77-.39.38,1.27,13.89,46.71c2.26,7.59,2.68,14.18,1.41,20-1.47.37-3,.72-4.46,1.07l-1.51.35c-29.62-2-55.93-11.25-65-25.14l-.57-.87c0-.06,0-.12-.05-.19h0c-.34-1.12-.66-2.24-1-3.36,0-.19-.11-.37-.16-.56l-2-6.58c-.43-1.43-.85-2.87-1.28-4.3l-2.85-9.59a15.4,15.4,0,0,1,.69-1.42,19.37,19.37,0,0,1,1.4-2.25q6.28-8.85,21.77-13.71h0q13-4.08,32.46-5.37h.08q3.32-.21,6.83-.35l.29,0h.09c2.21-.08,4.47-.15,6.78-.18A175.55,175.55,0,0,1,343.46,302l1,.11Z"/><path class="cls-3" d="M380.19,300C373.5,307.74,363,312.12,350,310.51l-7.37-1-14.17-2h0q-7-1.49-13.45-2.25h-.12c-1.12-.13-2.23-.25-3.32-.34h0q-4.65-.42-9-.42H301.1l-.74,0-.79,0h-.49l-.9.05-.69,0-1.32.09-1.5.14-1.43.16-.11,0c-.47,0-.92.11-1.38.18h-.06l-1.13.17-1.19.21-.67.13-.4.08-.51.11-1.21.28-.81.2-1.08.29-1,.3h0c-.32.09-.64.2-.95.3l-.19.06-.92.32c-.33.11-.66.24-1,.36h0l-1,.39-.83.36-1.22.56-.79.39-.91.48-.73.41h0l-.12.07,0,0-.85.51,0,0c-.27.17-.54.33-.8.51l-.21.14c-.5.33-1,.68-1.48,1l-.79.61-.68.55-.21.18-.64.55-.78.71-.64.64a.47.47,0,0,0-.1.1c-.21.21-.42.43-.62.65l-.05.05c-.2.21-.39.43-.59.65l-.18.2-.53.64c-.22.26-.43.52-.64.79s-.41.53-.61.81h0l-.54.77,0,.07-.54.8-.08.13-.5.82c-.17.28-.33.55-.49.84l-.06.1c-.16.28-.32.57-.47.86l0,.11-.39.75c-.05.1-.09.2-.15.3-.12.28-.25.55-.38.83l-.44,1s0,0,0,0c-.14.33-.27.66-.4,1,0,0,0,0,0,0l-.36.94c-.14.41-.29.82-.42,1.23s-.23.71-.34,1.06-.2.67-.29,1-.25.92-.37,1.39-.17.71-.25,1.07-.18.8-.26,1.2-.15.79-.22,1.19c0,0,0,.06,0,.09l-.18,1.06c-.09.54-.16,1.08-.24,1.63,0,.36-.09.74-.13,1.11s-.07.63-.1,1l-.06.61-.09,1.12c0,.36-.05.72-.07,1.08l0,.56,0,.83s0,.1,0,.14h0c0,.17,0,.33,0,.51,0,.36,0,.73,0,1.1-.34-1.12-.66-2.24-1-3.36,0-.19-.11-.37-.16-.56l-2-6.58c-.43-1.43-.85-2.87-1.28-4.3l-2.85-9.59L237.56,285c-3.17-10.63-6.25-20.64-1.5-31.47,5.85-13.36,20.23-22,34.8-19.86l.35,0,26.51,3.71,11.79,1.65.49.07.13,0,.39,0c0-.15-.09-.3-.13-.45h0c-.06-.22-.13-.46-.21-.69,3.83-22.42,24.31-25.72,62.39-20.64l.65,2.2,3.55,12.13,9.64,32.9C390.38,278.26,387.69,291.24,380.19,300Z"/><path class="cls-4" d="M328,373.26a29.61,29.61,0,0,1-1,3.55c-2.83,7.85-9.06,14.22-18.29,19.77-.73.44-1.46.87-2.2,1.29l-2.22,1.27-2.14,1.18-.24.13c-.7.38-1.41.75-2.12,1.12l-1.85,1q-5.21,2.63-10.6,4.91L286,408l-1.31.53-2.64,1-1.33.51-2.67,1-1.35.47c-.9.31-1.8.62-2.7.91-1.36.45-2.72.88-4.09,1.29-3.67,1.09-7.37,2.07-11.13,2.92l-.42.1-2.41.52-.09,0c-1.39.28-2.78.56-4.18.81s-2.86.51-4.31.73l-1.33.2-.34.06-2.57.35-.14,0-1.42.18-1,.12-1.09.12-.91.1-1.36.13-1.47.13c-.49.05-1,.08-1.48.12-1.38.11-2.78.2-4.18.28l-1.13.05-1.51.07-1,0c-.64,0-1.29,0-1.94.06h-.94l-1.21,0h-1.51a170,170,0,0,1-71-15.42h0C122,359,102.91,265.74,119.44,220.5a210.23,210.23,0,0,0-4,23.61c-15.71,142.8,144.14,175.31,206,134.16A65.62,65.62,0,0,0,328,373.26Z"/><path class="cls-5" d="M243.6,146.13c-3.06-.12-6.22-.49-9.5-.9a105.67,105.67,0,0,0-114.66,75.25v0C102.91,265.74,122,359,149.83,405.43A170.9,170.9,0,0,1,90.78,139.21c38.45-26.86,73.15-28.7,101.11-21C213.7,124.16,231.42,135.94,243.6,146.13Z"/><path class="cls-6" d="M149.83,405.43A170.85,170.85,0,0,1,200.34,80.37l.62.82,12.76,17,10.86,14.51a185,185,0,0,0-32.69,5.44C94.58,143.57,26.44,248.44,149.83,405.43Z"/><path class="cls-7" d="M277.7,113.83A33.14,33.14,0,0,1,267.1,138a34.31,34.31,0,0,1-3,2.48c-6.77,4.92-13.39,6-20.48,5.69-12.18-10.19-29.9-22-51.71-27.95-28-7.67-62.66-5.83-101.11,21a171.46,171.46,0,0,1,57.59-44,169.57,169.57,0,0,1,52-14.87,171.54,171.54,0,0,1,20.51-1.22C244.47,79.15,277.7,82.9,277.7,113.83Z"/><path class="cls-8" d="M368.25,200.75l-.23,0,0,.06,4.67,16.59h0l.65,2.32,3.4,12.05L381.34,248c3.84,13.62,1.25,26.6-6,35.31l-1.85-.19c-26.44-3-49.68-15-57.82-32.75l-5.32-11.63h0l-.21-.46L310,238a31.89,31.89,0,0,1-2.29-7.27h0a29.14,29.14,0,0,1-.39-7.79c0-.16,0-.32,0-.48s0-.41.06-.62c.06-.5.14-1,.23-1.51a30.15,30.15,0,0,1,2.7-8.08q10.62-21.32,49.86-25h.07q6.09-.57,12.86-.72a113.73,113.73,0,0,1,22.85,1.8L404.4,206l-20.53-3Z"/><path class="cls-9" d="M410.87,222.7l-.37-.07h-.13l-21.35-3-16.23-2.26h-.08l-.17,0,0,.06c-38.08-5.08-58.56-1.78-62.39,20.64-.11-.37-.23-.74-.35-1.12-.62-2-1.32-4-2.07-6.22h0c-3.84-11.15-9-24.87-11.51-38.08-3.78-19.89-1.55-38.62,20.26-45.61a36.64,36.64,0,0,1,8.09-1.58h0q10.94,1.51,20.45,3.33,6.94,1.31,13.16,2.76C437.57,170,431.81,204.47,410.87,222.7Z"/><path class="cls-10" d="M450,190.69a32.66,32.66,0,0,1-23.4,31.21h0a33.2,33.2,0,0,1-9.52,1.38,32.35,32.35,0,0,1-6.2-.58c20.94-18.23,26.7-52.66-52.67-71.18Q352,150.07,345,148.76q-9.53-1.81-20.45-3.33c9.07-.79,18.42,1.34,27.46,3,2.4.44,4.77.86,7.11,1.19L375,151.88l46.17,6.47h.12A32.72,32.72,0,0,1,450,190.69Z"/><path class="cls-11" d="M243.6,146.13c-3.06-.12-6.22-.49-9.5-.9a105.67,105.67,0,0,0-114.66,75.25v0C102.91,265.74,122,359,149.83,405.43A170.9,170.9,0,0,1,90.78,139.21c38.45-26.86,73.15-28.7,101.11-21C213.7,124.16,231.42,135.94,243.6,146.13Z"/><path class="cls-12" d="M328,373.22v0a29.61,29.61,0,0,1-1,3.55c-2.83,7.85-9.06,14.22-18.29,19.77-.73.44-1.46.87-2.2,1.29l-2.22,1.27-2.14,1.18-.24.13c-.7.38-1.41.75-2.12,1.12l-1.85,1q-5.21,2.63-10.6,4.91L286,408l-1.31.53-2.64,1-1.33.51c-.89.33-1.78.66-2.67,1l-1.35.47c-.9.31-1.8.62-2.7.91-1.36.45-2.72.88-4.09,1.29q-5.49,1.64-11.13,2.92l-.42.1-2.41.52-.09,0c-1.39.29-2.78.56-4.18.81s-2.86.51-4.31.73l-1.33.2-.34.06-2.57.35-.14,0-1.42.18-1,.12-1.09.12-.91.1-1.36.13-1.47.13c-.49.05-1,.08-1.48.12-1.38.11-2.78.2-4.18.28l-1.13.05-1.51.07-1,0c-.64,0-1.29,0-1.94.06h-.94l-1.21,0h-1.51a170,170,0,0,1-71-15.42h0C122,359,102.91,265.74,119.44,220.5a105.15,105.15,0,0,0-4,23.61q-.17,2.92-.16,5.89a105.63,105.63,0,0,0,141.15,99.45l.28-.09c-.07-.25-.14-.48-.22-.73,0-.06,0-.12-.05-.19h0c0-.37,0-.74,0-1.1,0-.18,0-.34,0-.51h0s0-.1,0-.14l0-.83,0-.56c0-.36,0-.72.07-1.08l.09-1.12.06-.61c0-.33.06-.65.1-1s.09-.75.13-1.11c.08-.55.15-1.09.24-1.63l.18-1.06s0-.06,0-.09c.07-.4.14-.8.22-1.19s.17-.8.26-1.2.16-.72.25-1.07.24-.93.37-1.39.19-.68.29-1,.22-.71.34-1.06.28-.82.42-1.23l.36-.94s0,0,0,0c.13-.34.26-.67.4-1,0,0,0,0,0,0l.44-1c.13-.28.26-.55.38-.83.06-.1.1-.2.15-.3l.39-.75,0-.11c.15-.29.31-.58.47-.86l.06-.1c.16-.29.32-.56.49-.84l.5-.82.08-.13.54-.8,0-.07.54-.77h0c.2-.28.41-.55.61-.81s.42-.53.64-.79l.53-.64.18-.2c.2-.22.39-.44.59-.65l.05-.05c.2-.22.41-.44.62-.65a.47.47,0,0,1,.1-.1l.64-.64.78-.71.64-.55.21-.18.68-.55.79-.61c.48-.36,1-.71,1.48-1l.21-.14c.26-.18.53-.34.8-.51l0,0,.85-.51,0,0,.12-.07h0l.73-.41.91-.48.79-.39,1.22-.56.83-.36,1-.39h0c.32-.12.65-.25,1-.36l.92-.32.19-.06c.31-.1.63-.21.95-.3h0l1-.3,1.08-.29.81-.2,1.21-.28.51-.11.4-.08.67-.13,1.19-.21,1.13-.17h.06c.46-.07.91-.13,1.38-.18l.11,0,1.43-.16,1.5-.14,1.32-.09.69,0,.9-.05h.49l.79,0,.74,0h1.42q4.34,0,9,.42h0c1.09.09,2.2.21,3.32.34H315q6.46.76,13.45,2.25l-13.32-1.86-2.77-.39a2.58,2.58,0,0,0-.88-.35.8.8,0,0,0-.27,0,.35.35,0,0,0-.21.15l1.36.19.38,1.27,13.89,46.71C328.86,360.83,329.28,367.42,328,373.22Z"/><path class="cls-13" d="M253.3,337.94c-.43-1.43-.85-2.87-1.28-4.3l-2.85-9.59L237.56,285c-3.17-10.63-6.25-20.64-1.5-31.47,5.85-13.36,20.23-22,34.8-19.86l.35,0,26.51,3.71C246.7,237.59,237.8,276.54,253.3,337.94Z"/><path class="cls-14" d="M380.19,300C373.5,307.74,363,312.12,350,310.51l-7.37-1-14.17-2h0l-13.32-1.86-2.77-.39H315a144.83,144.83,0,0,0,18.92-1.39c3.38-.49,6.57-1.12,9.57-1.86,14.05-3.52,24-9.83,30.07-18.87,9.64-14.43,9.21-35.8-.76-63.76l.44.24.15.08,3.4,12.05,9.64,32.9C390.38,278.26,387.69,291.24,380.19,300Z"/><path class="cls-15" d="M352.05,148.47c-1.41,0-2.79.05-4.14.11-1,0-1.93.1-2.87.18-30.14,2.25-45.89,17.34-48.81,43.86-3.78-19.89-1.55-38.62,20.26-45.61a36.64,36.64,0,0,1,8.09-1.58h0C333.66,144.64,343,146.77,352.05,148.47Z"/><path class="cls-16" d="M277.7,113.83A33.14,33.14,0,0,1,267.1,138l-1.29,0c-.76-28.7-13.59-46.74-34.95-53.72-8.65-2.82-18.69-3.83-29.9-3-15.51,1.15-33.25,5.8-52.59,14a169.57,169.57,0,0,1,52-14.87,171.54,171.54,0,0,1,20.51-1.22C244.47,79.15,277.7,82.9,277.7,113.83Z"/></svg>